/* XPM */
static char *Chat[] = {
/* columns rows colors chars-per-pixel */
"32 32 53 1 ",
"  c #000000",
". c #070707",
"X c #0A0A0A",
"o c #0D0D0D",
"O c #131313",
"+ c #171717",
"@ c #1B1B1B",
"# c #1D1D1D",
"$ c #232323",
"% c #242424",
"& c #292929",
"* c #2B2B2B",
"= c #303030",
"- c #353535",
"; c #393939",
": c #3F3F3F",
"> c #404040",
", c #454545",
"< c #4A4A4A",
"1 c #525252",
"2 c #636363",
"3 c #646464",
"4 c #6B6B6B",
"5 c #6F6F6F",
"6 c #737373",
"7 c #767676",
"8 c #797979",
"9 c #7D7D7D",
"0 c #8C8C8C",
"q c #949494",
"w c #9B9B9B",
"e c #9F9F9F",
"r c #A3A3A3",
"t c #A7A7A7",
"y c #A8A8A8",
"u c #AEAEAE",
"i c #B4B4B4",
"p c #B8B8B8",
"a c #BFBFBF",
"s c #C2C2C2",
"d c #C5C5C5",
"f c #CBCBCB",
"g c #D6D6D6",
"h c #D9D9D9",
"j c #DDDDDD",
"k c #E0E0E0",
"l c #E4E4E4",
"z c #E8E8E8",
"x c #ECECEC",
"c c #F1F1F1",
"v c #F5F5F5",
"b c #FAFAFA",
"n c #FFFFFF",
/* pixels */
"                                ",
"             o@##+o             ",
"         +>7ydhjjgft8>O         ",
"       %8fvnnnnnnnnnnvf8%       ",
"     O7jnnnnnvzkkzvnnnnnh7O     ",
"    =pnnnbgw2:&$$&:3wgbnnnp=    ",
"   >gnnbd2@          @1dbnng>   ",
"  -gnnz7O             .+7znnh-  ",
" +annh<                  <jnna+ ",
" 9nnl,                    ,knn9 ",
"&hnb5                      5bnh&",
"8nnsO                      Osnn8",
"snn5                        5nns",
"znc;                        ;cnz",
"nnl$                        %lnn",
"bnl$                        $knb",
"znc;                        ;cnz",
"snn6                        5nns",
"7nnd+                      Osnn8",
"%hnb6                      5bnh&",
" 8nnz<                    ,lnn9 ",
" +annj:                  <hnna+ ",
"  =jnnq                O7znnh-  ",
"  #hnb1  $#          @2snnng:   ",
"  8nnfOX3jhe3>&%$&:2wgbnnbp=    ",
" =jnb7:uvnnnnvzkkzvnnnnnj7O     ",
"@inncfxnnnbnnnnnnnnnnvf8%       ",
"rnnnnnnnx0,8tdgjjgdy8>O         ",
"vnnnnnle:    o+##@o             ",
"qjhft4&.                        ",
"X@@o                            ",
"                                "
};
