/* XPM */
static char *Chat[] = {
/* columns rows colors chars-per-pixel */
"32 32 41 1 ",
"  c #000000",
". c #050505",
"X c #0D0D0D",
"o c #131313",
"O c #171717",
"+ c #181818",
"@ c #1D1D1D",
"# c #222222",
"$ c #242424",
"% c #282828",
"& c #292929",
"* c #303030",
"= c #353535",
"- c #3F3F3F",
"; c #424242",
": c #5F5F5F",
"> c #616161",
", c #656565",
"< c #6C6C6C",
"1 c #767676",
"2 c #797979",
"3 c #7D7D7D",
"4 c #898989",
"5 c #949494",
"6 c #9E9E9E",
"7 c #A7A7A7",
"8 c #A8A8A8",
"9 c #B8B8B8",
"0 c #BFBFBF",
"q c #C1C1C1",
"w c #C6C6C6",
"e c #CACACA",
"r c #CBCBCB",
"t c #D6D6D6",
"y c #DADADA",
"u c #DDDDDD",
"i c #EAEAEA",
"p c #F2F2F2",
"a c #F5F5F5",
"s c #FAFAFA",
"d c white",
/* pixels */
"                                ",
"             XO@@OX             ",
"         o;28wyuute72;o         ",
"       $2epddddddddddae2$       ",
"     o1uddddddddddddddddu1O     ",
"    *9dddddddddddddddddddd9%    ",
"   -tddddddddddddddddddddddt;   ",
"  =tddddddddddddddddddddddddy=  ",
" O0dddddddddddddddddddddddddd0O ",
" 3dddddddddddddddddddddddddddd3 ",
"%yddddddddddddddddddddddddddddy%",
"2dddddddddddddddddddddddddddddd2",
"qddddddddddddddddddddddddddddddq",
"iddddddddddddddddddddddddddddddi",
"ddddddddddddddddddddddddddddddds",
"sddddddddddddddddddddddddddddddd",
"iddddddddddddddddddddddddddddddi",
"qddddddddddddddddddddddddddddddq",
"2ddddddddddddddddddddddddddddds2",
"$yddddddddddddddddddddddddddddy%",
" 3dddddddddddddddddddddddddddd3 ",
" O0dddddddddddddddddddddddddd0O ",
"  *yddddddddddddddddddddddddy=  ",
"   5dddddddddddddddddddddddt-   ",
"  Oeddddddddddddddddddddds9*    ",
"  :sddddddddddddddddddddu1o     ",
" +edddddatpddddddddddae3$       ",
".4dddddy,O-27wtuutw72;o         ",
"<pdddu4$    .X+@@+X             ",
"eyw6>#                          ",
"++X.                            ",
"                                "
};
