/* XPM */
static char *Chat[] = {
/* columns rows colors chars-per-pixel */
"28 32 62 1 ",
"  c #000000",
". c #050505",
"X c #090909",
"o c #0E0E0E",
"O c #141414",
"+ c #151515",
"@ c #181818",
"# c #1C1C1C",
"$ c #242424",
"% c #262626",
"& c #2A2A2A",
"* c #2D2D2D",
"= c #333333",
"- c #353535",
"; c #3B3B3B",
": c #3C3C3C",
"> c #424242",
", c #444444",
"< c #484848",
"1 c #4B4B4B",
"2 c #515151",
"3 c #555555",
"4 c #595959",
"5 c #5F5F5F",
"6 c #626262",
"7 c #656565",
"8 c #6B6B6B",
"9 c #6C6C6C",
"0 c #727272",
"q c #747474",
"w c #7D7D7D",
"e c #828282",
"r c #848484",
"t c #8B8B8B",
"y c #8F8F8F",
"u c #929292",
"i c #949494",
"p c #999999",
"a c #A2A2A2",
"s c #A5A5A5",
"d c #AAAAAA",
"f c #AEAEAE",
"g c #B3B3B3",
"h c #B4B4B4",
"j c #BBBBBB",
"k c #BEBEBE",
"l c #C2C2C2",
"z c #C7C7C7",
"x c #C8C8C8",
"c c #CECECE",
"v c #D1D1D1",
"b c #D6D6D6",
"n c #D9D9D9",
"m c #DDDDDD",
"M c #E2E2E2",
"N c #E5E5E5",
"B c #EAEAEA",
"V c #EEEEEE",
"C c #F2F2F2",
"Z c #F6F6F6",
"A c #FAFAFA",
"S c #FDFDFD",
/* pixels */
"                            ",
"                            ",
"                            ",
"                          +o",
"                       o,pvd",
"                    .&0zZSSA",
"                  @2sNSSSSSN",
"               X-rvASSSSSSSg",
"             $6hVSSSSkrVSSSw",
"          o,imASSSSNq>lSSSZ1",
"       .&qlCSSSSSAf-;vSSSSm$",
"     +2sNSSSSSSSn7o,mSSSSSkX",
"  X-ecASSSSSSSCp$ 4NSSSSSSu ",
"@5hVSSSSSSSSSx2..8CSSSSSSS6 ",
"zSSSSSSSSSSVr@ XwZSSSSSSSC- ",
"tvZSSSSSSSh:. oyASSSSSSSSb@ ",
" +,txCSSm9+  +aSSSSSSSSSSh. ",
"    o:wu*   $fSSSSSSSSSSSe  ",
"           &kSSSSSSSSSSSS3  ",
"          +lSSSSSSSSSSSSB*  ",
"          &BSSSSSSSSSSSSc+  ",
"          ;CSSSSSSSSSSSSa   ",
"          >ZSSlzSSSSSSSSq   ",
"          2SSg#@iZSSSSSA<   ",
"          6Sf#  .5MSSSSM$   ",
"          7a@     =jSSSlo   ",
"          +X       +tCSy    ",
"                    .>0#    ",
"                            ",
"                            ",
"                            ",
"                            "
};
