/* XPM */
static char *Chrome[] = {
/* columns rows colors chars-per-pixel */
"31 32 60 1 ",
"  c #000000",
". c #070707",
"X c #0A0A0A",
"o c #0D0D0D",
"O c #121212",
"+ c #171717",
"@ c #1A1A1A",
"# c #1F1F1F",
"$ c #232323",
"% c #272727",
"& c #282828",
"* c #2C2C2C",
"= c #303030",
"- c #353535",
"; c #3B3B3B",
": c #3F3F3F",
"> c #434343",
", c #454545",
"< c #494949",
"1 c #4F4F4F",
"2 c #525252",
"3 c #555555",
"4 c #595959",
"5 c #5C5C5C",
"6 c #646464",
"7 c #666666",
"8 c #676767",
"9 c #6E6E6E",
"0 c #737373",
"q c #747474",
"w c #777777",
"e c #7E7E7E",
"r c #818181",
"t c #878787",
"y c #8B8B8B",
"u c #8D8D8D",
"i c #929292",
"p c #969696",
"a c #9F9F9F",
"s c #A2A2A2",
"d c #A3A3A3",
"f c #A9A9A9",
"g c #AFAFAF",
"h c #B6B6B6",
"j c #BBBBBB",
"k c #BFBFBF",
"l c #C2C2C2",
"z c #C6C6C6",
"x c #CBCBCB",
"c c #D6D6D6",
"v c #DADADA",
"b c #DFDFDF",
"n c #E0E0E0",
"m c #E5E5E5",
"M c #E9E9E9",
"N c #EEEEEE",
"B c #F1F1F1",
"V c #F4F4F4",
"C c #F8F8F8",
"Z c #FFFFFF",
/* pixels */
"          .#<9tit9<$.          ",
"        O2svBZZZZZBvs2O        ",
"      .2lVZZZZZZZZZZZVl2.      ",
"     @pVZZZZZZZZZZZZZZZBp@     ",
"    &jZZZZZZZZZZZZZZZZZZZj%    ",
"   $lZZZZZZZZZZZZZZZZZZZZZk%   ",
"   3CZZZZZZZZZZZZZZZZZZZZZZfo  ",
" .%OgZZZZZZZZZZZZZZZZZZZZZZZq  ",
" =l&=mZZZZZZnfq5480eypsghlxck# ",
" uZt qZZZZBu%X           .XO+. ",
"%vZn&OjZZM5. o=,=o   $:<2580ee#",
"8CZZy ;MV8  2lNBNl1. 1NCCZZZZV8",
"fZZZn* rfX 8BZZZZZB8 XgZZZZZZZs",
"vZZZZu +& =nZZZZZZZb* 4CZZZZZZv",
"BZZZZm=   eZZZZZZZZZe &mZZZZZZB",
"ZZZZZZi   fZZZZZZZZZf @vZZZZZZZ",
"ZZZZZZm=  fZZZZZZZZZf @vZZZZZZZ",
"BZZZZZZp. eZZZZZZZZZe *MZZZZZZN",
"cZZZZZZm- *nZZZZZZZn* 4ZZZZZZZc",
"fZZZZZZZa. 8BZZZZZB8 .gZZZZZZZs",
"8VZZZZZZV8 .2kNVNk2. 1BZZZZZZC8",
"%vZZZZZZZM8  o=>*o  @zZZZZZZZv$",
" uZZZZZZZZNi&.      yZZZZZZZZy ",
" *nZZZZZZZZZmfq84X ,mZZZZZZZn* ",
"  qZZZZZZZZZZZZZi +kZZZZZZZCq  ",
"  OfZZZZZZZZZZZn* qZZZZZZZZfO  ",
"   %lZZZZZZZZZZy :mZZZZZZZk$   ",
"    %jZZZZZZZZb&ohZZZZZZZj%    ",
"     @pVZZZZZZt 0ZZZZZZBi@     ",
"      .2lVZZZv$=bZZZZVk1.      ",
"        O2scVeogZZBvs1O        ",
"          .$,+#tt9<#.          "
};
