/* XPM */
static char *Emacs[] = {
/* columns rows colors chars-per-pixel */
"30 30 63 1 ",
"  c #000000",
". c #050505",
"X c #080808",
"o c #0D0D0D",
"O c #111111",
"+ c #151515",
"@ c #181818",
"# c #1E1E1E",
"$ c #252525",
"% c #2A2A2A",
"& c #2F2F2F",
"* c #303030",
"= c #353535",
"- c #393939",
"; c #3D3D3D",
": c #424242",
"> c #444444",
", c #4B4B4B",
"< c #4F4F4F",
"1 c #535353",
"2 c #575757",
"3 c #5A5A5A",
"4 c #5D5D5D",
"5 c #626262",
"6 c #646464",
"7 c #686868",
"8 c #6D6D6D",
"9 c #747474",
"0 c #777777",
"q c #7B7B7B",
"w c #7C7C7C",
"e c #838383",
"r c #848484",
"t c #8C8C8C",
"y c #8F8F8F",
"u c #929292",
"i c #979797",
"p c #9B9B9B",
"a c #9F9F9F",
"s c #A1A1A1",
"d c #A4A4A4",
"f c #ABABAB",
"g c #ADADAD",
"h c #B3B3B3",
"j c #B6B6B6",
"k c #BABABA",
"l c #BCBCBC",
"z c #C3C3C3",
"x c #C5C5C5",
"c c #C8C8C8",
"v c #CDCDCD",
"b c #D0D0D0",
"n c #D6D6D6",
"m c #DBDBDB",
"M c #DFDFDF",
"N c #E1E1E1",
"B c #E7E7E7",
"V c #EAEAEA",
"C c #EEEEEE",
"Z c #F2F2F2",
"A c #F7F7F7",
"S c #FAFAFA",
"D c #FFFFFF",
/* pixels */
"         #4dnZDSZns4#         ",
"       #qbSDDDDDDDDSbq#       ",
"     .2bDDDDDDDDDDDDDDn2.     ",
"    oeZDDDDDDDDZnkgddgMZeo    ",
"   ouSDDDDDDDDDAbs8=o #iAyX   ",
"   wSDDDDBpeyfcMCSDCj# ohDq   ",
"  ,CDDDDD7   .o#&:152O  9DC,  ",
" +zDDDDDD7              uDDz+ ",
" 6DDDDDDDx@  &phhdu92&%6BDDS7 ",
"olDDDDDDDDy. 3SDDDDDSCVSDDDDy ",
">CDDDDDDDDAwXXeZDDDDDDDDDDC9o ",
"eDDDDDDDDDDSu+.4NDDDDDDDDV4 o*",
"hDDDDDDDDSSAAj= =xDDDDDDV3  5d",
"bDDDDDCke3:;>34$ @iADDDA6  *Mn",
"NDDDSd-X          X7BDS9. @kDN",
"NDDDdo      O*>2689wkDiX XiDDM",
"bDDS<     $rvCADDDDDDk@  wSDDb",
"hDDD5    &bDDDDDDDDDb& .8ZDDDj",
"eDDDx#   2SDDDDDDDDB>  7ZDDDDe",
":CDDDg#  owVDDDDDDZ4  <CDDDDC:",
"olDDDDc,.  *ynADDSe. -mDDDDDlo",
" 5DDDDDCp&.  @>wjio &vDDDDDD6 ",
" +zDDDDDDBi,+.  .X  9CDDDDDz+ ",
"  ,CDDDDDDDSNki3.   .*sSDDC<  ",
"  .qSDDSMxljhfd2      >ZDSq   ",
"   XySDDBzsr82$ X;,29aNDSyo   ",
"    oeZDDDDDDm%XyZSSDDDZeo    ",
"     .2bDDDDD8ouSDDDDDb2.     ",
"       #qvSDk$pDDDDSbq#       ",
"         #4s1ySDZnd4#         "
};
