/* XPM */
static char *Terminal[] = {
/* columns rows colors chars-per-pixel */
"40 40 95 2 ",
"   c black",
".  c #010101",
"X  c #030303",
"o  c #040404",
"O  c #080808",
"+  c #090909",
"@  c #0A0A0A",
"#  c #0B0B0B",
"$  c #0D0D0D",
"%  c #0E0E0E",
"&  c #101010",
"*  c #111111",
"=  c #121212",
"-  c #131313",
";  c #1B1B1B",
":  c #1C1C1C",
">  c #1E1E1E",
",  c #1F1F1F",
"<  c #202020",
"1  c #212121",
"2  c #222222",
"3  c #232323",
"4  c #242424",
"5  c #252525",
"6  c #262626",
"7  c #272727",
"8  c #282828",
"9  c #292929",
"0  c #2E2E2E",
"q  c #2F2F2F",
"w  c #303030",
"e  c #373737",
"r  c #3C3C3C",
"t  c #3D3D3D",
"y  c #404040",
"u  c #414141",
"i  c #444444",
"p  c #4C4C4C",
"a  c #4D4D4D",
"s  c #4E4E4E",
"d  c #505050",
"f  c #565656",
"g  c #575757",
"h  c #595959",
"j  c #5A5A5A",
"k  c #5D5D5D",
"l  c #5F5F5F",
"z  c #646464",
"x  c #7B7B7B",
"c  c #7C7C7C",
"v  c #7D7D7D",
"b  c #7E7E7E",
"n  c #7F7F7F",
"m  c #808080",
"M  c #919191",
"N  c #959595",
"B  c #9A9A9A",
"V  c #A6A6A6",
"C  c #A8A8A8",
"Z  c #ACACAC",
"A  c #AEAEAE",
"S  c #B0B0B0",
"D  c #B1B1B1",
"F  c #B2B2B2",
"G  c #B4B4B4",
"H  c #BCBCBC",
"J  c #C1C1C1",
"K  c #C8C8C8",
"L  c #C9C9C9",
"P  c #CBCBCB",
"I  c #D1D1D1",
"U  c #D2D2D2",
"Y  c #D5D5D5",
"T  c #D6D6D6",
"R  c #D7D7D7",
"E  c #D8D8D8",
"W  c #DADADA",
"Q  c #DDDDDD",
"!  c #DEDEDE",
"~  c #E3E3E3",
"^  c #E4E4E4",
"/  c #E9E9E9",
"(  c #EAEAEA",
")  c #ECECEC",
"_  c #EDEDED",
"`  c #F1F1F1",
"'  c #F3F3F3",
"]  c #F6F6F6",
"[  c #F7F7F7",
"{  c #F8F8F8",
"}  c #FCFCFC",
"|  c #FDFDFD",
" . c #FEFEFE",
".. c #FFFFFF",
"X. c None",
/* pixels */
"X.X.X.X.X.X.X.X.X.X.X.X.X.X.X.X.X.X.X.X.X.X.X.X.X.X.X.X.X.X.X.X.X.X.X.X.X.X.X.X.",
"X.X.X.X.X.X.X.X.X.X.X.X.X.X.X.X.X.X.X.X.X.X.X.X.X.X.X.X.X.X.X.X.X.X.X.X.X.X.X.X.",
"X.X.X.X.X.X.X.X.X.X.X.X.X.X.X.X.X.X.X.X.X.X.X.X.X.X.X.X.X.X.X.X.X.X.X.X.X.X.X.X.",
"X.X.X.X.                                                                X.X.X.X.",
"X.X.X.                                                                    X.X.X.",
"X.X.    o w l z z z z z z z z z z z z z z z z z z z z z z z z z z l 0 o     X.X.",
"X.      h ! [ [ [ [ { { { { { { { { { { { { { { { { [ { [ [ { [ [ [ ! h       X.",
"X.    = L ........{ { { { { { { { { { [ { { { { { { { { [ [ [ ........L =     X.",
"X.    < / ....T m z z z z z z z z z z z z z z z z z z z z z z m W ..../ >     X.",
"X.    < / ..~ p                                                 p ^ ../ <     X.",
"X.    < / ..D O                                                 O D ../ <     X.",
"X.    < / ..V         O                                           V ../ <     X.",
"X.    < / ..V       d N 5                                         V ../ <     X.",
"X.    < / ..V   o p W ..D <                                       V ../ <     X.",
"X.    < / ..V   8 P ......D <                                     V ../ <     X.",
"X.    < / ..V   % b ' ......A 5                                   V ../ <     X.",
"X.    < / ..V     O b ' ......D 5                                 V ../ <     X.",
"X.    < / ..V       % b ' ......A <                               V ../ <     X.",
"X.    < / ..V         O b _ ......D 5                             V ../ <     X.",
"X.    < / ..V           % b ' ......A 5                           V ../ <     X.",
"X.    < / ..V             O M ........V %                         V ../ <     X.",
"X.    < / ..V             < G ......[ m O                         V ../ <     X.",
"X.    < / ..V           < D ......' x O                           V ../ <     X.",
"X.    < / ..V         < D ......' b O                             V ../ <     X.",
"X.    < / ..V       < D ......' x %     O 5 8 8 8 8 8 8 8 8 >     V ../ <     X.",
"X.    < / ..V     < D ......' m O       e J I I I I I I I T B =   V ../ <     X.",
"X.    < / ..V   ; A ......' b O         i _ ................H =   V ../ <     X.",
"X.    < / ..V   > A ....' b O           i _ ................H =   V ../ <     X.",
"X.    < / ..V     < G ' b O             r W / / / / / / / _ A =   C ../ <     X.",
"X.    < / ..D O     8 f %               = r y y y y y y y y w   O D ../ <     X.",
"X.    < / ..^ p                                                 p ^ ../ <     X.",
"X.    > / ....W m l h l h h h l h h l h h l h h h l h h l h l m T ..../ >     X.",
"X.    = L ........[ [ [ [ [ ' [ [ [ [ [ ' [ [ [ [ [ ' [ [ [ [ { ......L =     X.",
"X.      h ! [ [ [ [ { { [ [ [ [ { { [ [ [ [ { { [ [ [ [ { { [ [ [ [ ! f       X.",
"X.X.    o 0 z z z z z z z z z z z z z z z z z z z z z z z z z z z z 0       X.X.",
"X.X.X.                                                                    X.X.X.",
"X.X.X.X.                                                                X.X.X.X.",
"X.X.X.X.X.X.X.X.X.X.X.X.X.X.X.X.X.X.X.X.X.X.X.X.X.X.X.X.X.X.X.X.X.X.X.X.X.X.X.X.",
"X.X.X.X.X.X.X.X.X.X.X.X.X.X.X.X.X.X.X.X.X.X.X.X.X.X.X.X.X.X.X.X.X.X.X.X.X.X.X.X.",
"X.X.X.X.X.X.X.X.X.X.X.X.X.X.X.X.X.X.X.X.X.X.X.X.X.X.X.X.X.X.X.X.X.X.X.X.X.X.X.X."
};
